<?xml version="1.0" encoding="utf-8"?>
<!-- Generator: Adobe Illustrator 16.2.1, SVG Export Plug-In . SVG Version: 6.00 Build 0)  -->
<!DOCTYPE svg PUBLIC "-//W3C//DTD SVG 1.1//EN" "http://www.w3.org/Graphics/SVG/1.1/DTD/svg11.dtd">
<svg version="1.1" id="Layer_1" xmlns="http://www.w3.org/2000/svg" xmlns:xlink="http://www.w3.org/1999/xlink" x="0px" y="0px"
	 width="83.5px" height="107.5px" viewBox="0 0 83.5 107.5" enable-background="new 0 0 83.5 107.5" xml:space="preserve">
<g>
	<g>
		<path d="M42.157,37.003l-3.426,0.812l-1.074-4.355l5.951-1.682h4.095v20.467h-5.546V37.003z"/>
	</g>
	<g>
		<path d="M19.434,75.094h6.03c5.082,0,8.594,3.489,8.594,8.041v0.045c0,4.552-3.512,8.086-8.594,8.086h-6.03V75.094z
			 M22.275,77.682v10.997h3.188c3.396,0,5.614-2.288,5.614-5.453V83.18c0-3.165-2.218-5.498-5.614-5.498H22.275z"/>
		<path d="M42.099,74.979h2.634l7.114,16.287h-3.003l-1.641-3.904h-7.646l-1.664,3.904h-2.911L42.099,74.979z M46.164,84.844
			l-2.796-6.47l-2.772,6.47H46.164z"/>
		<path d="M56.838,84.891l-6.422-9.797h3.372l4.505,7.139l4.573-7.139h3.259l-6.423,9.727v6.445h-2.864V84.891z"/>
	</g>
	<g>
		<path fill="#1C1E1D" d="M67,68H18V18h49V68z M22,64h41V22H22V64z"/>
	</g>
</g>
</svg>
