<?xml version="1.0" encoding="utf-8"?>
<!-- Generator: Adobe Illustrator 16.2.1, SVG Export Plug-In . SVG Version: 6.00 Build 0)  -->
<!DOCTYPE svg PUBLIC "-//W3C//DTD SVG 1.1//EN" "http://www.w3.org/Graphics/SVG/1.1/DTD/svg11.dtd">
<svg version="1.1" id="Layer_1" xmlns="http://www.w3.org/2000/svg" xmlns:xlink="http://www.w3.org/1999/xlink" x="0px" y="0px"
	 width="468.722px" height="468.724px" viewBox="0 0 468.722 468.724" enable-background="new 0 0 468.722 468.724"
	 xml:space="preserve">
<g>
	<g>
		<path fill="#6ABEDB" d="M234.361,138.708c52.743,0,95.652,42.91,95.652,95.654c0,52.743-42.909,95.652-95.652,95.652
			c-52.744,0-95.654-42.909-95.654-95.652C138.707,181.618,181.617,138.708,234.361,138.708 M234.361,117.708
			c-64.426,0-116.654,52.229-116.654,116.654s52.229,116.652,116.654,116.652s116.652-52.227,116.652-116.652
			S298.787,117.708,234.361,117.708L234.361,117.708z"/>
	</g>
</g>
<linearGradient id="SVGID_1_" gradientUnits="userSpaceOnUse" x1="212.8301" y1="235.3467" x2="275.1875" y2="235.3467">
	<stop  offset="0" style="stop-color:#6ABEDB"/>
	<stop  offset="1" style="stop-color:#96CCDB"/>
</linearGradient>
<polygon fill="url(#SVGID_1_)" points="212.83,271.349 275.188,235.347 212.83,199.345 "/>
</svg>
