<?xml version="1.0" encoding="utf-8"?>
<!-- Generator: Adobe Illustrator 16.2.1, SVG Export Plug-In . SVG Version: 6.00 Build 0)  -->
<!DOCTYPE svg PUBLIC "-//W3C//DTD SVG 1.1//EN" "http://www.w3.org/Graphics/SVG/1.1/DTD/svg11.dtd">
<svg version="1.1" id="Layer_1" xmlns="http://www.w3.org/2000/svg" xmlns:xlink="http://www.w3.org/1999/xlink" x="0px" y="0px"
	 width="81.5px" height="81.5px" viewBox="0 0 81.5 81.5" enable-background="new 0 0 81.5 81.5" xml:space="preserve">
<g>
	<g>
		<path fill="#FFA630" d="M40.75,11.03c16.586,0,30.08,13.494,30.08,30.08c0,16.586-13.494,30.08-30.08,30.08
			S10.67,57.696,10.67,41.11C10.67,24.524,24.164,11.03,40.75,11.03 M40.75,8.03c-18.271,0-33.08,14.811-33.08,33.08
			c0,18.271,14.81,33.08,33.08,33.08s33.08-14.81,33.08-33.08C73.83,22.841,59.021,8.03,40.75,8.03L40.75,8.03z"/>
	</g>
	<polygon fill="#FFA630" points="34.5,51.501 52.194,41.285 34.5,31.069 	"/>
</g>
</svg>
