<?xml version="1.0" encoding="utf-8"?>
<!-- Generator: Adobe Illustrator 16.2.1, SVG Export Plug-In . SVG Version: 6.00 Build 0)  -->
<!DOCTYPE svg PUBLIC "-//W3C//DTD SVG 1.1//EN" "http://www.w3.org/Graphics/SVG/1.1/DTD/svg11.dtd">
<svg version="1.1" id="Layer_1" xmlns="http://www.w3.org/2000/svg" xmlns:xlink="http://www.w3.org/1999/xlink" x="0px" y="0px"
	 width="269.831px" height="269.831px" viewBox="0 0 269.831 269.831" enable-background="new 0 0 269.831 269.831"
	 xml:space="preserve">
<g>
	<linearGradient id="SVGID_1_" gradientUnits="userSpaceOnUse" x1="17.8462" y1="134.3809" x2="251.1528" y2="134.3809">
		<stop  offset="0" style="stop-color:#6ABEDB"/>
		<stop  offset="1" style="stop-color:#96CCDB"/>
	</linearGradient>
	<circle fill="url(#SVGID_1_)" cx="134.5" cy="134.381" r="116.653"/>
</g>
<path fill="#FFFFFF" d="M175.538,118.463c0,25.934-21.021,46.959-46.959,46.959c-25.935,0-46.956-21.025-46.956-46.959
	c0-25.932,21.021-46.956,46.956-46.956C154.516,71.507,175.538,92.531,175.538,118.463z M170.288,161.788
	c11.358-10.939,18.428-26.306,18.428-43.325c0-33.214-26.924-60.138-60.134-60.138c-33.216,0-60.14,26.924-60.14,60.138
	c0,33.216,26.924,60.14,60.14,60.14c10.646,0,20.647-2.769,29.321-7.622 M170.281,161.782l29.255,39.472l-12.388,9.183
	l-29.249-39.462"/>
</svg>
