<?xml version="1.0" encoding="utf-8"?>
<!-- Generator: Adobe Illustrator 16.2.1, SVG Export Plug-In . SVG Version: 6.00 Build 0)  -->
<!DOCTYPE svg PUBLIC "-//W3C//DTD SVG 1.1//EN" "http://www.w3.org/Graphics/SVG/1.1/DTD/svg11.dtd">
<svg version="1.1" id="Layer_1" xmlns="http://www.w3.org/2000/svg" xmlns:xlink="http://www.w3.org/1999/xlink" x="0px" y="0px"
	 width="269.831px" height="269.831px" viewBox="0 0 269.831 269.831" enable-background="new 0 0 269.831 269.831"
	 xml:space="preserve">
<linearGradient id="SVGID_1_" gradientUnits="userSpaceOnUse" x1="21.0605" y1="135.1436" x2="254.3013" y2="135.1436">
	<stop  offset="0" style="stop-color:#6ABEDB"/>
	<stop  offset="1" style="stop-color:#96CCDB"/>
</linearGradient>
<path fill="url(#SVGID_1_)" d="M21.274,129.36h144l2.632,0.533l-62.342-39.441c-2.567-1.633-3.33-4.905-1.697-7.462
	c1.053-1.645,2.836-2.48,4.651-2.48c1.01,0,2.03,0.312,2.954,0.892l78.257,49.861c1.578,1.01,2.545,2.769,2.545,4.648
	s-0.967,3.636-2.545,4.646l-78.257,49.846c-2.546,1.611-5.973,0.872-7.605-1.685s-0.87-6.492,1.697-8.125l62.338-40.232h-2.628h-144
	h-0.197c2.962,62,54.007,111.529,116.544,111.529c64.441,0,116.68-51.974,116.68-116.414c0-64.441-52.239-117.079-116.68-117.079
	c-62.658,0-113.779,48.963-116.561,110.963H21.274z"/>
</svg>
