<?xml version="1.0" encoding="utf-8"?>
<!-- Generator: Adobe Illustrator 16.2.1, SVG Export Plug-In . SVG Version: 6.00 Build 0)  -->
<!DOCTYPE svg PUBLIC "-//W3C//DTD SVG 1.1//EN" "http://www.w3.org/Graphics/SVG/1.1/DTD/svg11.dtd">
<svg version="1.1" id="Layer_1" xmlns="http://www.w3.org/2000/svg" xmlns:xlink="http://www.w3.org/1999/xlink" x="0px" y="0px"
	 width="269.831px" height="269.831px" viewBox="0 0 269.831 269.831" enable-background="new 0 0 269.831 269.831"
	 xml:space="preserve">
<g>
	<linearGradient id="SVGID_1_" gradientUnits="userSpaceOnUse" x1="14.8462" y1="134.3809" x2="248.1528" y2="134.3809">
		<stop  offset="0" style="stop-color:#6ABEDB"/>
		<stop  offset="1" style="stop-color:#96CCDB"/>
	</linearGradient>
	<circle fill="url(#SVGID_1_)" cx="131.5" cy="134.381" r="116.653"/>
</g>
<g>
	<g>
		<g>
			
				<line fill="none" stroke="#FFFFFF" stroke-width="11" stroke-linecap="round" stroke-miterlimit="10" x1="82.831" y1="133.5" x2="209.831" y2="133.5"/>
			<g>
				<path fill="#FFFFFF" d="M156.096,171.896c-1.176-1.841-0.626-4.293,1.222-5.469l51.101-32.546l-51.101-32.546
					c-1.849-1.176-2.398-3.628-1.222-5.469c1.175-1.841,3.643-2.374,5.476-1.214l56.345,35.888c1.137,0.727,1.833,1.987,1.833,3.341
					s-0.696,2.614-1.833,3.341l-56.345,35.888c-0.666,0.418-1.4,0.619-2.127,0.619C158.138,173.729,156.854,173.079,156.096,171.896
					z"/>
			</g>
		</g>
	</g>
	
		<polyline fill="none" stroke="#FFFFFF" stroke-width="11" stroke-linecap="round" stroke-linejoin="round" stroke-miterlimit="10" points="
		119.331,155 119.331,181.5 59.331,181.5 59.331,87.5 119.331,87.5 119.331,114 	"/>
</g>
</svg>
