<?xml version="1.0" encoding="utf-8"?>
<!-- Generator: Adobe Illustrator 16.2.1, SVG Export Plug-In . SVG Version: 6.00 Build 0)  -->
<!DOCTYPE svg PUBLIC "-//W3C//DTD SVG 1.1//EN" "http://www.w3.org/Graphics/SVG/1.1/DTD/svg11.dtd">
<svg version="1.1" id="Layer_1" xmlns="http://www.w3.org/2000/svg" xmlns:xlink="http://www.w3.org/1999/xlink" x="0px" y="0px"
	 width="269.831px" height="269.831px" viewBox="0 0 269.831 269.831" enable-background="new 0 0 269.831 269.831"
	 xml:space="preserve">
<linearGradient id="SVGID_1_" gradientUnits="userSpaceOnUse" x1="134.3306" y1="18.7324" x2="134.3306" y2="251.8286">
	<stop  offset="0" style="stop-color:#6ABEDB"/>
	<stop  offset="1" style="stop-color:#96CCDB"/>
</linearGradient>
<path fill="url(#SVGID_1_)" d="M134.331,18.732c-64.366,0-116.548,52.176-116.548,116.548c0,64.365,52.182,116.548,116.548,116.548
	s116.548-52.183,116.548-116.548C250.878,70.908,198.696,18.732,134.331,18.732L134.331,18.732z M134.331,31.278
	c57.352,0,102.486,46.654,102.486,104.002c0,35.658-17.986,67.187-46.986,85.928v-8.361c0-10.019,0.268-27.484-8.644-28.598
	c-12.542-1.569-27.983-4.181-26.417-16.202c1.569-12.021,18.993-14.138,18.993-38.858c0-24.723-19.802-43.357-38.094-43.357h-1.338
	c-18.292,0-38.473,18.635-38.473,43.357c0,24.721,17.044,27.974,18.612,39.995s-14.633,14.063-27.177,15.633
	c-9.087,1.133-10.22,19.121-10.154,28.952l-0.006,8.349c-28.182-18.627-46.807-50.6-46.807-86.832
	C30.327,77.937,76.982,31.278,134.331,31.278"/>
</svg>
